<svg xmlns="http://www.w3.org/2000/svg" viewBox="0 0 512 512" fill="none">
  <defs>
    <linearGradient id="bgGradient" x1="0%" y1="0%" x2="100%" y2="100%">
      <stop offset="0%" style="stop-color:#6366f1"/>
      <stop offset="100%" style="stop-color:#8b5cf6"/>
    </linearGradient>
    <linearGradient id="brainGradient" x1="0%" y1="0%" x2="100%" y2="100%">
      <stop offset="0%" style="stop-color:#ffffff"/>
      <stop offset="100%" style="stop-color:#e0e7ff"/>
    </linearGradient>
  </defs>
  
  <!-- Background circle -->
  <circle cx="256" cy="256" r="240" fill="url(#bgGradient)"/>
  
  <!-- Brain icon -->
  <g transform="translate(128, 128) scale(10.67)">
    <path 
      d="M12 2C8.5 2 5.5 4.5 5 8c-.7.3-1.3.7-1.8 1.2C2.2 10.2 2 11.6 2 13c0 2.2 1.1 4.2 2.8 5.4.3 2.8 2.6 5 5.4 5.6.4.1.8 0 1.2-.2.4-.2.6-.5.6-.9V21c0-.6-.4-1-1-1-.3 0-.6.1-.8.3-.2.2-.3.4-.3.7 0 .1 0 .1 0 .2-.6-.3-1-.9-1-1.6 0-.8.5-1.5 1.2-1.8.3-.1.5-.3.7-.5.1-.3.2-.6.1-.9l-.3-1c-.1-.3-.3-.6-.6-.7-.3-.2-.7-.2-1-.1-.8.3-1.4 1-1.4 1.9 0 .3.1.6.2.8-1.1-.9-1.8-2.2-1.8-3.7 0-1 .3-1.9.9-2.7.5-.7 1.2-1.2 2-1.4.4-.1.7-.4.8-.8C7 5.8 9.2 4 12 4s5 1.8 5.3 4.3c.1.4.4.7.8.8.8.2 1.5.7 2 1.4.6.8.9 1.7.9 2.7 0 1.5-.7 2.8-1.8 3.7.1-.3.2-.5.2-.8 0-.9-.6-1.6-1.4-1.9-.3-.1-.7-.1-1 .1-.3.2-.5.4-.6.7l-.3 1c-.1.3 0 .6.1.9.2.3.4.5.7.5.7.3 1.2 1 1.2 1.8 0 .7-.4 1.3-1 1.6v-.2c0-.3-.1-.5-.3-.7-.2-.2-.5-.3-.8-.3-.6 0-1 .4-1 1v1.9c0 .4.2.7.6.9.4.2.8.2 1.2.2 2.8-.6 5.1-2.8 5.4-5.6C20.9 17.2 22 15.2 22 13c0-1.4-.2-2.8-1.2-3.8-.5-.5-1.1-.9-1.8-1.2-.5-3.5-3.5-6-7-6z"
      fill="url(#brainGradient)"
    />
  </g>
  
  <!-- Sparkle accents -->
  <circle cx="140" cy="140" r="8" fill="rgba(255,255,255,0.6)"/>
  <circle cx="372" cy="140" r="6" fill="rgba(255,255,255,0.5)"/>
  <circle cx="140" cy="372" r="5" fill="rgba(255,255,255,0.4)"/>
  <circle cx="372" cy="372" r="7" fill="rgba(255,255,255,0.5)"/>
</svg>
